<svg width="15" height="14" viewBox="0 0 15 14" fill="none" xmlns="http://www.w3.org/2000/svg">
<path d="M4.57153 1.49524L5.09038 0.640373L4.57153 0.325465L4.05268 0.640374L4.57153 1.49524ZM7.57153 3.31605L7.05268 4.17091L7.57153 4.48582L8.09038 4.17091L7.57153 3.31605ZM1.57153 3.31605L1.05268 2.46118L0.571533 2.75321V3.31605H1.57153ZM1.57153 7.21778H0.571533V7.67931L0.922736 7.97874L1.57153 7.21778ZM7.57153 12.3334L6.92274 13.0943L7.57153 13.6475L8.22033 13.0943L7.57153 12.3334ZM13.5715 7.21778L14.2203 7.97874L14.5715 7.67931V7.21778H13.5715ZM13.5715 3.31605H14.5715V2.75321L14.0904 2.46118L13.5715 3.31605ZM10.5715 1.49524L11.0904 0.640374L10.5715 0.325465L10.0527 0.640373L10.5715 1.49524ZM4.05268 2.35011L7.05268 4.17091L8.09038 2.46118L5.09038 0.640373L4.05268 2.35011ZM2.09038 4.17091L5.09038 2.3501L4.05268 0.640374L1.05268 2.46118L2.09038 4.17091ZM2.57153 7.21778V3.31605H0.571533V7.21778H2.57153ZM8.22033 11.5724L2.22033 6.45682L0.922736 7.97874L6.92274 13.0943L8.22033 11.5724ZM8.22033 13.0943L14.2203 7.97874L12.9227 6.45682L6.92274 11.5724L8.22033 13.0943ZM14.5715 7.21778V3.31605H12.5715V7.21778H14.5715ZM14.0904 2.46118L11.0904 0.640374L10.0527 2.3501L13.0527 4.17091L14.0904 2.46118ZM10.0527 0.640373L7.05268 2.46118L8.09038 4.17091L11.0904 2.35011L10.0527 0.640373Z" fill="white"/>
</svg>
